<svg id="Слой_1" data-name="Слой 1" xmlns="http://www.w3.org/2000/svg" viewBox="0 0 1000 1000"><defs><style>.cls-1{fill:#3e3e3e;}</style></defs><title>Rivne1_vector</title><path class="cls-1" d="M894.82,1000l-150.51-.07c-.67-5.87-1-11.73.18-17.58l-.13.13c1.43-1.15,3.14-.59,4.71-.59,36.83,0,73.67-.44,110.48.3,10.67.22,21.41,1,32.14,1.14,1.91,0,3.92.3,3.93,2.53C895.64,990.54,896.72,995.33,894.82,1000Z" transform="translate(0.39 0.04)"/><path class="cls-1" d="M254.44,999.66l-148.54-.07c-2.69-4.7-1.42-9.56-.57-14.37.2-1.11,1.37-1.68,2.49-2a9.79,9.79,0,0,1,2.91-.28c47.4-.6,94.8-.42,142.2-.38a7.8,7.8,0,0,1,1.45.21A57.8,57.8,0,0,1,254.44,999.66Z" transform="translate(0.39 0.04)"/><path class="cls-1" d="M736.34,983.62a92.94,92.94,0,0,0,.1,16.26l-101.32,0c-2-5.26-.71-10.67-.79-16,0-1.82,1.57-2.06,3.18-2.05,4.09,0,8.19,0,12.29,0q40.56,0,81.13.08C732.82,981.87,735.39,980.74,736.34,983.62Z" transform="translate(0.39 0.04)"/><path class="cls-1" d="M365.59,999.71l-101.32-.05c-2.74-4.65-1.68-9.58-1-14.42.28-2,2.07-2.86,4.23-3.24,5.73-1,11.4-.39,17.1,0,13.57,1,27.16.5,40.73.45,11.77,0,23.56.72,35.32-.64,4.64-.53,6,.76,5.88,5.1S367.56,995.57,365.59,999.71Z" transform="translate(0.39 0.04)"/><path class="cls-1" d="M980.5,303.61a238.23,238.23,0,0,0-45.4,8,224.75,224.75,0,0,0-77,38.55c-5,3.85-10.22,7.64-14.22,12.58a5.07,5.07,0,0,1-3.08,2.91,178.31,178.31,0,0,0-38.17,49.21c-1.06,1.82-1.06,4.18-3.13,5.48a177.92,177.92,0,0,0-17.59,47.13c-1.41,6.37-3.23,12.7-3,19.31-.83,1.58,0,3.4-.75,5-.08,1.4-.15,2.8-.22,4.21-1,3.18.17,6.5-.73,9.69s-.35,4.87,4.09,4.83c27.75-.21,55.49-.11,83.24-.11,1.37.54,2.77,1,2.51,2.87a19.82,19.82,0,0,0,0,2.78q-.11,226.07-.26,452.13c0,1.94,1.25,4.45-1.71,5.69l-.39,0-.32.23a9,9,0,0,1-3.86.34q-68.22,0-136.42-.07c-1.43,0-3,.42-4.27-.53l.09.07c-1.09-1.39-.57-3-.57-4.49q.13-362.64.34-725.3c0-1.5-.52-3.1.57-4.49l-.09.07c1.48-1,3.18-.52,4.77-.52q133.36,0,266.74.12c1.62,0,3.28-.29,4.86.32a.75.75,0,0,0,.83.18c2.34.93,2.12,2.9,2.12,4.74q0,26.64,0,53.29c0,2.25,0,4.45-3.13,4.89l-7.71.22C985.94,303.75,983.12,302.6,980.5,303.61Z" transform="translate(0.39 0.04)"/><path class="cls-1" d="M2.08,239.28a1,1,0,0,0,.91-.16c1.59-.58,3.24-.3,4.87-.3q133.62,0,267.24.14c1.74,0,3.61-.6,5.22.59q-.18,363.51-.37,727c0,2.55.54,5.25-1.91,7.24a9.39,9.39,0,0,1-3.87.33q-66.95,0-133.87-.07a9.56,9.56,0,0,1-3.87-.32l-.41-.19-.46,0a2.31,2.31,0,0,1-1.57-2.15c0-1.24,0-2.47,0-3.71q.1-226,.24-452c0-2.12-1.08-4.83,2.48-5.63,27.37,0,54.75,0,82.12.19,4,0,4.44-1.32,4.3-4.51-2-44.8-16.76-85.36-45.8-121-33.79-41.44-78.12-67.44-132.25-78.51-14-2.87-28.2-5-42.67-4.06C.12,301.7.51,300,.51,298.47q0-27.81,0-55.62C.52,241.46.37,240,2.08,239.28Z" transform="translate(0.39 0.04)"/><polygon class="cls-1" points="462.35 165.41 394.02 165.71 393.99 235.04 462.32 235.07 462.35 165.41"/><polygon class="cls-1" points="608.06 165.73 539.73 165.78 539.7 235.1 608.03 235.14 608.06 165.73"/><path class="cls-1" d="M289,165.54V136s20.51.09,27,.09l396.71.11,0,29.67Z" transform="translate(0.39 0.04)"/><polygon class="cls-1" points="685.41 235.09 685.44 165.84 713.03 165.67 712.26 234.91 685.41 235.09"/><path class="cls-1" d="M288.8,234.94s-.08,133.36-.11,200c0,1.39,0,2.79,0,4.18,0,.87.33,1.49,1.42,1.4a203.52,203.52,0,0,1,25.73-47.15,208.89,208.89,0,0,1,17.63-21,222.32,222.32,0,0,1,60.1-44.91,230.11,230.11,0,0,1,37.33-15c13.38-4.09,27-7.35,41-8.38,1.61-.88,3.5,0,5.13-.71l3.81-.19c2.58-1.07,5.39.13,8-.71a203.81,203.81,0,0,1,21.69,0c2.94.9,6.08-.35,9,.73l3.77.18c1.66.78,3.57-.11,5.22.72,3.62,1.18,7.47,1.17,11.19,1.78a218,218,0,0,1,50.65,14.64,222.15,222.15,0,0,1,79.11,56.05,204.22,204.22,0,0,1,30,42.75c3.83,7.39,7.13,15,10.68,22.55,2.9-1.14,1.36-3.52,1.37-5.23q.15-100.73.17-201.47Z" transform="translate(0.39 0.04)"/><path class="cls-1" d="M288.76,234.94q0-27.87.13-55.76c0-4.44.05-9.2.09-13.63h26.95l0,69.4Z" transform="translate(0.39 0.04)"/><path class="cls-1" d="M291.83,973.84l-.45-.17-.48,0c-1.37-.54-2.76-1-2.52-2.87a25,25,0,0,0,0-3.24q.12-226.24.24-452.49c0-1.65-.55-3.4.56-5q35.61,0,71.22.07c2.12,0,4.25-.14,6.19.93,1.25,1.34.64,3,.64,4.44q-.06,226.86-.22,453.73c0,1.45.72,3.1-.75,4.35l-.37,0-.3.21c-1.25,1-2.76.82-4.23.82q-32.4,0-64.8,0C295,974.63,293.28,974.81,291.83,973.84Z" transform="translate(0.39 0.04)"/><path class="cls-1" d="M636.33,510.28l74.59.09c1.21,1.35.62,3,.62,4.45q-.06,227.29-.21,454.59c0,1.49.56,3.1-.6,4.47l.12-.11c-.79.78-1.81.58-2.77.58l-70.11,0a4.27,4.27,0,0,1-2.82-.49l0,0a2.45,2.45,0,0,1-1.5-2.22c0-1.24,0-2.47,0-3.71q.11-226,.24-451.93C633.92,513.87,632.84,511.17,636.33,510.28Z" transform="translate(0.39 0.04)"/><path class="cls-1" d="M746.12,111.58c-5.39,0-10.78-.15-16.17-.15q-228.35-.12-456.69-.21c-1.8,0-3.6.09-5.4.13-3-.86-6.18-.52-9.22-.33-4.16.26-5.35-1.25-5.32-5.06.17-19.7.11-39.41.08-59.11,0-1.66.47-3.39-.48-5h0a7.94,7.94,0,0,1,0-6c1.25-1.68,3.16-1.39,4.91-1.37,17.27.19,34.54-.68,51.81-.38,2.42,0,4.95-.28,6.94,1.52q0,21,.11,42c0,1.68.19,3.36.3,5a4.34,4.34,0,0,0,2.83.48q35.31,0,70.64,0a4.34,4.34,0,0,0,2.83-.47l.27-48.13c.82-.7,1.84-.53,2.8-.53l62.23,0a4.08,4.08,0,0,1,2.8.51q.12,24.08.23,48.15a4.34,4.34,0,0,0,2.81.48l70.9,0a5.07,5.07,0,0,0,2.85-.42h0c1-8.11.19-16.25.47-24.37.28-8-.59-16,.46-23.91h0a5,5,0,0,1,2.85-.43q30.6,0,61.19,0a5.63,5.63,0,0,1,2.87.38l.07,0c.86,11.8.1,23.61.4,35.41.11,4.27-.63,8.56.48,12.8v0c1,.7,2.21.47,3.33.47q35.07,0,70.14,0a6.43,6.43,0,0,0,3.36-.39l0,0c1-2.19.9-4.52.9-6.84,0-11.89,0-23.79,0-35.68,0-4.88,1.23-6.18,6.28-6.21,17.36-.1,34.72.77,52.09.42,3.27-.07,4.12,1.3,4.11,4.21-.11,23.17-.06,46.34-.13,69.52C747.13,109.47,747.93,111,746.12,111.58Z" transform="translate(0.39 0.04)"/><path class="cls-1" d="M290.63,1.25C292.52-.51,294.91,0,297.14,0L698.21.21l8.35,0c3.22,0,4.79,1.61,4.8,4.58,0,6.33-.1,12.66.06,19,.07,2.48-1.2,2.72-3.28,2.71q-13.27-.06-26.54.06c-1.56,0-3.29-.59-4.67.68-.85,1.92-.53,3.94-.53,5.92,0,12.9,0,25.8-.06,38.71,0,1.49.47,3.07-.51,4.49l0,0c-20.64.79-41.28.88-61.93-.08q-.11-24-.23-48.11a4.34,4.34,0,0,0-2.83-.47q-38.26,0-76.52,0a4.34,4.34,0,0,0-2.83.47q-.13,24.06-.28,48.11c-.8.73-1.82.55-2.78.55q-28.17,0-56.34,0c-1,0-2,.17-2.79-.53l.05,0a4.78,4.78,0,0,1-1-1.53c-1.07-8.46-.27-16.94-.46-25.41-.13-5.86,0-11.72,0-17.58,0-2.76-.81-4.21-4.2-4.19-25,.09-50.07,0-75.11,0a3.07,3.07,0,0,0-1.83.5l-.05.09c-1.05,1.55-.5,3.29-.53,4.93-.26,14.39.39,28.79-.38,43.18l-.12,0c-4.19.82-8.43.37-12.64.35-16.11-.1-32.23.37-48.34-.27-1.87-1.26-.93-3.11-.94-4.66-.07-13.18,0-26.36,0-39.54,0-1.77.56-3.72-1.27-5.11-8.75-1.08-17.55-.27-26.32-.47-6.32-.14-6.33,0-6.34-5.87,0-5.38,0-10.77,0-16.15,0-1.14-.61-2.49.75-3.4Z" transform="translate(0.39 0.04)"/><path class="cls-1" d="M996.37,214.64q-77.85-.07-155.72-.15-60.18,0-120.36,0c-1-.85-.66-2-.66-3,0-11.43.12-22.86-.07-34.29-.06-3.85,1.58-5.28,5.47-5.27,18.35,0,36.71.07,55.06,0,3.56,0,5,1.24,5,4.63-.12,6.95,0,13.9-.07,20.85,0,2.9,1.08,4.26,4.28,4.24,16.71-.16,33.42.28,50.12-.22a8.21,8.21,0,0,1,4.26-.8c3.32.5,3.85-1.49,3.9-3.9.09-4.93,0-9.87,0-14.81a12.15,12.15,0,0,1,.86-4.07c.25-5.32.27-5.37,5.43-5.37,17.35,0,34.7.12,52-.07,4,0,5.17,1.19,5.06,4.76-.19,6.78,0,13.57-.1,20.36-.06,3.34,1.27,4.74,4.89,4.68,17.18-.31,34.35.39,51.53-.41,3.77-.17,4.73-1.54,4.66-4.77-.15-6.79,0-13.58-.07-20.36,0-3.38,1.39-4.72,5-4.64,5.89.13,11.78.12,17.67,0,3.49-.06,5,1.1,5,4.58-.14,10.95-.09,21.91,0,32.86C999.48,211.83,998.94,213.72,996.37,214.64Z" transform="translate(0.39 0.04)"/><path class="cls-1" d="M280.38,174.52c0,11.57-.23,23.15,0,34.72.08,3.92-.76,5.11-5.25,5.1q-113.7-.3-227.39-.22c-14.9,0-29.79,0-44.69.06-2.42-.91-2.59-2.79-2.58-4.9.07-7.79.06-15.58,0-23.38,0-1.5.37-3.06-.48-4.49-.87-3-.57-5.72,1.84-8L3,172.51c7.3-1,14.65-.29,22-.4,3-.05,2.57,2.31,2.59,4.08.07,6.79.18,13.57,0,20.35-.12,3.69,1.34,4.8,5.14,4.77,15.7-.13,31.41,0,47.11-.06,7.66,0,8.21-.69,8.24-8.06,0-3.85,0-7.7,0-11.56,0-2.35.36-4.63,2.4-6.31l3-2.75c2.69-1,5.49-.44,8.23-.45,14.72-.06,29.44.07,44.15-.07,3.76,0,5.36,1,5.22,4.76-.23,5.85-.08,11.71-.07,17.57,0,6.64,2.72,9.25,9.65,9.26q23.07,0,46.11,0c1.32.13,2.44-.85,3.65-.82,4.81.15,6.14-2.28,5.58-6.28,0-4.89-.1-9.76,0-14.64a11.86,11.86,0,0,1,.89-4.23c.27-5.54.27-5.55,6.2-5.55l52.32,0C277.47,172.18,279.82,171.68,280.38,174.52Z" transform="translate(0.39 0.04)"/><path class="cls-1" d="M430.34,405.28c-2.5,2.33-6.18,3.14-8.42,5.81-1.57.55-2.42,2.17-4.17,2.48l.1-.09a28.92,28.92,0,0,1-4,3.43c-6.52,2.9-10.39,8.58-15.34,13.11-1.53,1.41-2.58,3.21-5.16,2.38l-66.54-42.19c7.48-9,15-17.9,23.93-25.62A234.53,234.53,0,0,1,395,334.23c3.56-1.88,7.18-3.68,10.76-5.53,2.14-1.1,3.28-1.19,4.55,1.53,9.51,20.25,19.32,40.38,29,60.54a6.67,6.67,0,0,0,.54.77c2.89,8.18,2.9,8.18-5.62,12C432.91,404.08,431.78,405,430.34,405.28Z" transform="translate(0.39 0.04)"/><path class="cls-1" d="M893.14,432.66Q861.57,412.59,830,392.49c-1.84-1.18-3.52-2.12-1-4.85,8.42-9.18,16.45-18.57,26.35-26.58a253.13,253.13,0,0,1,34.44-23.94c4.83-2.73,10-5,14.91-7.56,2.71-1.39,4.6-1.3,6,1.73,9.26,19.55,18.63,39,27.95,58.57.59,1.23,1.13,2.49,1.69,3.74,2,5.22,1.72,6-3.12,8.83-3.17,1.84-6.65,3.15-9.84,5l.09-.07c-2.08,1.14-3.92,2.62-6,3.78l.08-.06a136.17,136.17,0,0,0-22.08,18.33C897.87,431.1,896.35,433.46,893.14,432.66Z" transform="translate(0.39 0.04)"/><path class="cls-1" d="M557.62,397.13c3.19-8.72,7.73-16.88,11.75-25.25,6.24-13,12.68-25.93,18.69-39,1.94-4.2,3.36-4.85,8.07-2.61a223.54,223.54,0,0,1,59,40.77,184.72,184.72,0,0,1,17.23,19.18q-33.31,21.24-66.52,42.39c-2.59.91-3.9-1-5.35-2.31-4.76-4.4-9.45-8.87-14.15-13.33a11.06,11.06,0,0,0-5.2-3.25,5.24,5.24,0,0,1-1.61-1.22,78.3,78.3,0,0,0-18-10.19C560,400.76,557.3,400,557.62,397.13Z" transform="translate(0.39 0.04)"/><path class="cls-1" d="M57.88,396c10.69-22.1,21.42-44.17,32-66.3,1.41-2.95,2.95-1.23,4.48-.53A212.77,212.77,0,0,1,158.51,374c4.1,4.19,7.7,8.81,11.8,13,2.35,2.38,1.7,3.56-.86,5.17q-30.12,18.89-60.13,38c-1.07.67-2.1,1.4-3.15,2.1-2.54.86-3.9-.9-5.36-2.24-4.07-3.73-8.07-7.53-12-11.35a13.05,13.05,0,0,0-5.59-3.51c-6-5.42-13-9.4-20.39-12.85C60.14,401.08,57.08,399.76,57.88,396Z" transform="translate(0.39 0.04)"/><path class="cls-1" d="M516.4,308.88c9.39,1.38,18.81,2.51,28.1,4.57,2.78.62,3,1.14,2.4,3.51q-9.35,34.5-18.47,69.05a13.37,13.37,0,0,0-.25,1.81c-1.93,2.75-4.48,1.25-6.86.89l0,0c-2.56-.61-5.14,0-7.68.1-11.05.54-22.09.07-33.13-.26-1.54,0-2.82.58-4.28.67-2.35.13-4.2-.27-5.06-2.58Q462,351.85,452.72,317c-.39-1.47-1.42-2.88,2-3.65,9.34-2.07,18.83-3,28.25-4.5,2.05-.74,4.3.15,6.34-.69h20.85C512.18,309.07,514.39,308.12,516.4,308.88Z" transform="translate(0.39 0.04)"/><path class="cls-1" d="M784.76,492.75a172.69,172.69,0,0,1,10.13-45.49c2.1-5.81,4.75-11.44,7.09-17.18.91-2.21,1.79-2.9,4.59-1.72,21.31,9,42.72,17.71,64.12,26.5,1.76.72,3.61,1.23,5.41,1.84,3.3,2.19,3.46,4.92,1.59,8-1.05,1.75-1.37,3.78-2.4,5.54a11.66,11.66,0,0,0-2,5.39,6.3,6.3,0,0,1-.52,1.23c-1.39,2-1,4.33-1.56,6.49-2.14,4.71-2,9.91-3.55,14.74-.48,1.46-.34,3.06-1.9,4-1.31,1.42-3.06.74-4.59.74q-36.23.06-72.44,0c-1.94,0-4.47.83-4.7-2.33C785,498,783.8,495.28,784.76,492.75Z" transform="translate(0.39 0.04)"/><path class="cls-1" d="M122.56,457.19,167.3,438.8c8.66-3.56,17.37-7,25.95-10.72,2.4-1,3.31-.52,4.29,1.59a189.77,189.77,0,0,1,16.84,58.91c.52,4.54,3.16,10.34.07,13.28-2.75,2.62-9,.69-13.74.71-22.6.06-45.21,0-67.82,0-1.39-3.16-.33-6.66-1.5-9.84-2.32-6.8-3.37-13.92-6-20.63-1.27-3.16-2.28-6.4-3.74-9.49C120.67,460.61,120.58,458.74,122.56,457.19Z" transform="translate(0.39 0.04)"/><path class="cls-1" d="M627.5,477.11a30.86,30.86,0,0,1-3.08-8.57c-.89-2.21-1.33-4.58-2.74-6.59l.05.07c-1.18-1.68-1.13-3.22.56-4.59q21.87-9.15,43.75-18.28c8.67-3.59,17.52-6.84,26-10.74,3.21-1.47,4.12-1,5.44,1.86a224.08,224.08,0,0,1,12.57,35.33c.36,1.32.78,2.63,1.16,3.94.38,11.11,1,22.22-.31,33.31q-36.79,0-73.59-.09c-1.66,0-3.62.88-5-.84.18-6.34-2.57-12.3-2.83-18.58l0,0C628.62,481.35,628.46,479.11,627.5,477.11Z" transform="translate(0.39 0.04)"/><path class="cls-1" d="M365.33,502.62l-76.13.06c-1.24-4.5-.49-9.09-.52-13.63,0-6.87-.39-13.75.24-20.62,2.73-13.33,7.5-26.05,13.05-38.53,1.09-2.44,2.61-2.59,5-1.6,14.09,5.9,28.15,11.86,42.34,17.52,9,3.59,17.67,7.89,27,10.67,2.85,1.62,3.45,3.86,1.88,6.56-1.15,2-1.44,4.31-2.71,6.25l.07-.1c-1.73,7.62-5.5,14.71-6.06,22.71C369.23,495.59,368.84,499.8,365.33,502.62Z" transform="translate(0.39 0.04)"/><path class="cls-1" d="M21.61,309.59c7.56,1.12,15.11,2.33,22.69,3.32,2.93.38,3.52,1.45,2.8,4.11-5.51,20.18-10.89,40.39-16.29,60.6-.86,3.25-1.61,6.53-2.41,9.79-2.08,1.48-4.47.69-6.64.57-6.92-.39-21.85-2.77-21.85-2.77s.21-11.39.13-17.95C-.18,350,0,332.67,0,315.38c0-2.65-.26-5.4,3.23-6.5H4.49C10.15,310,15.93,308.64,21.61,309.59Z" transform="translate(0.39 0.04)"/><path class="cls-1" d="M984.05,309.35l8.26,0c1.09.7,2.2.16,3.32.07,2.42-.2,3.68.89,3.73,3.21,0,.92,0,1.85,0,2.78q0,33.84,0,67.68c0,5.8-.14,5.8-6.4,5.95-5.7.15-11.41-.58-17.1.39-1.44.24-3,.23-4-1.07q-6.3-23.22-12.62-46.44c-2.12-7.76-3.91-15.62-6.48-23.24-1.29-3.82.28-5.07,3.53-5.58,7.16-1.12,14.36-2,21.54-3C979.81,309.27,982,310.2,984.05,309.35Z" transform="translate(0.39 0.04)"/><path class="cls-1" d="M1.22,221.69a.92.92,0,0,0,.8-.19c1.58-.57,3.24-.3,4.86-.3q134.12,0,268.23.14c1.74,0,3.61-.59,5.22.59-.07,9.91-.07,9.91-10.76,9.91L9,231.72c-2,0-3.93.06-5.89.09-1.26-.55-2.8-.84-2.53-2.7C.88,226.65-.17,224.07,1.22,221.69Z" transform="translate(0.39 0.04)"/><path class="cls-1" d="M996.39,232.26q-60.18-.07-120.37-.13-77.87,0-155.74,0a18.21,18.21,0,0,1-.15-10.14l0,0c1.35-.85,2.87-.47,4.3-.47q135.81,0,271.61.11c.66,0,1.31,0,2,.06C1000.63,226.09,1000,230.3,996.39,232.26Z" transform="translate(0.39 0.04)"/><path class="cls-1" d="M848.5,440c-2.68-1.23-5.31-2.57-8.06-3.68q-16.46-6.66-33-13.19c-1.63-.64-1.31-1.29-.63-2.58a249.63,249.63,0,0,1,14.82-23.75c1.18-1.73,2.36-1.56,4.05-.48q17.26,11.06,34.67,21.9c1.74,1.08,2,2.07,1,3.6-3.35,5.37-6.68,10.75-10.1,16.08C850.73,438.86,850.57,440.59,848.5,440Z" transform="translate(0.39 0.04)"/><path class="cls-1" d="M362.63,419.8c-1,1.43-1.89,2.53-2.61,3.72-2.86,4.73-5.75,9.46-8.48,14.27-1.06,1.85-2.22,2.28-4.27,1.43q-19.18-8-38.45-15.87c-2.41-1-2.75-1.74-1.37-4.12A250.28,250.28,0,0,1,321.6,397.3c1.4-1.92,2.34-2.47,4.56-1,11.57,7.48,23.23,14.84,34.85,22.25A18.7,18.7,0,0,1,362.63,419.8Z" transform="translate(0.39 0.04)"/><path class="cls-1" d="M693.2,422q-20.13,8.4-40.33,16.85c-2.48,1-4.2,1-5.62-1.77a79.22,79.22,0,0,0-7.42-12.11c-3.05-4-2.36-6.42,1.93-9q15.19-9.09,30-18.71c3.14-2,4.75-2.12,7.05,1.29A240.65,240.65,0,0,1,693.2,422Z" transform="translate(0.39 0.04)"/><path class="cls-1" d="M457.33,357.17c.52,1.94-1.47,2.22-2.59,2.58-6.19,2-12.45,3.79-18.72,5.56-1.61.45-2.46.21-3.39-1.83q-8.29-18.3-17.48-36.25c-1-2-.41-2.39,1-2.85,9.09-3,18.2-5.92,27.35-8.73,1.23-.38,2.8-.46,3.33,1.57,3.43,13.14,7,26.25,10.49,39.37A3,3,0,0,1,457.33,357.17Z" transform="translate(0.39 0.04)"/><path class="cls-1" d="M957.09,357.23c.32,1.4-.63,1.9-2,2.34-6.37,2-12.73,4-19,6.15-2.39.81-2.74-.57-3.46-2.09q-7.24-15.21-14.63-30.35c-3.76-7.73-3.88-7.93,4.44-10.95,6.8-2.47,13.82-4.41,20.78-6.45,1.64-.48,3.16,0,3.66,1.93q5.12,19.4,10.24,38.78A4.21,4.21,0,0,1,957.09,357.23Z" transform="translate(0.39 0.04)"/><path class="cls-1" d="M563.5,365.56c-6.63-2-13.12-3.93-19.53-6-2-.66-2-2.22-1.43-4.13,3.27-12.05,6.29-24.16,9.53-36.21.64-2.38,1.35-4.17,5.29-2.94,8.57,2.67,17.18,5.16,25.55,8.4,2.51,1,1.92,1.75,1.24,3.17-5.72,11.89-11.48,23.76-17.12,35.68C566.22,365.2,565.15,365.83,563.5,365.56Z" transform="translate(0.39 0.04)"/><path class="cls-1" d="M193.5,421.76c-14,5.75-27.54,11.28-41.05,16.92-2,.84-3,.78-4.16-1.23-3.08-5.41-6.38-10.71-9.75-16-1-1.58-.77-2.39.76-3.35C151,410.8,162.61,403.46,174.18,396c2.34-1.51,3-.16,4.06,1.33A198.34,198.34,0,0,1,193.5,421.76Z" transform="translate(0.39 0.04)"/><path class="cls-1" d="M64.45,365.26c-3.56-1.12-7.42-2.31-11.27-3.55-3.52-1.13-8.52-1.37-10.14-3.7s1.13-6.56,2-9.94c2.62-9.82,5.39-19.6,7.73-29.48.76-3.19,1.82-3.39,4.92-2.55,8.31,2.25,16.42,5,24.47,7.87,2.35.84,3.2,1.71,1.94,4.24-5.74,11.52-11.24,23.15-16.86,34.73C66.77,363.92,66.6,365.41,64.45,365.26Z" transform="translate(0.39 0.04)"/><path class="cls-1" d="M378.65,451.81c-6.74-2.8-13.46-5.66-20.25-8.37-1.79-.72-2.82-1.12-1.46-3.19,3.27-4.94,6.54-9.9,9.29-15.1,1.39-2.62,2.58-1.8,4.2-.77q10.65,6.75,21.26,13.54c.53,2.21-1.25,3.23-2.6,4.46-1.26.54-.84,2-1.65,2.75-1.09,1.52-1.68,3.33-3,4.74l0,0C383.23,452.29,381.23,452.82,378.65,451.81Z" transform="translate(0.39 0.04)"/><path class="cls-1" d="M878.41,452.19c-6.32-2.59-12.62-5.22-19-7.75-2.73-1.09-4.28-1.84-1.88-5.07a115,115,0,0,0,8.65-14.43c1-1.84,1.79-1.64,3.19-.7,7.08,4.71,14.73,8.64,21.36,14,1.78.87.54,1.81-.09,2.49-2.36,2.54-3.72,5.66-5.68,8.42l.09-.1C883.79,451.82,881.73,453.19,878.41,452.19Z" transform="translate(0.39 0.04)"/><path class="cls-1" d="M609.11,437.11c6.65-4.29,13.26-8.65,20-12.8,1.22-.76,2.92-1.82,4.26.71,2.67,5,5.8,9.78,8.77,14.63,1.19,1.94,1.09,3-1.49,4-7.4,2.85-14.66,6-22,9.08a2.78,2.78,0,0,1-2.86-2l.07.09c-1.33-2.18-2.65-4.37-4.11-6.48l-2-2.74C609.36,440.16,607.37,438.86,609.11,437.11Z" transform="translate(0.39 0.04)"/><path class="cls-1" d="M444.58,387.87c-2.3-4.75-4.48-9.56-6.93-14.23-1.11-2.12-.74-2.76,1.68-3.42,5.41-1.48,10.72-3.33,16-5.09,2.91-1,4.3-.36,5,2.78,1.6,7.27,3.69,14.44,5.59,21.66-1.73,2.83-12,7-15.1,6.17-1.71-.48-2.53-1.86-3.39-3.13C446.43,391.08,445.81,389.31,444.58,387.87Z" transform="translate(0.39 0.04)"/><path class="cls-1" d="M945.27,389.12c-3.33-5-5.42-10.49-8.06-15.76-.91-1.82-.21-2.32,1.55-2.84,5.67-1.71,11.25-3.66,16.94-5.32,2.23-.66,3.77-.17,4.42,2.63,1.62,7,3.76,13.95,5.7,20.92-.1,2.5-1.72,3.81-4,4.63-1.22.44-2.51.63-3.75,1C949.46,397.08,948.92,396.86,945.27,389.12Z" transform="translate(0.39 0.04)"/><path class="cls-1" d="M534.93,385.09c1.45-6,2.81-12,4.41-17.94.53-1.95,1.76-2.89,4.36-1.93,5.24,1.93,10.61,3.54,16,5,2.78.76,3.28,1.74,1.95,4.23-3.47,6.48-6.65,13.09-9.95,19.65-5.73,2.94-10.56-.14-15.24-2.41C533.93,390.48,534.29,387.56,534.93,385.09Z" transform="translate(0.39 0.04)"/><path class="cls-1" d="M109.35,436.86c6.87-4.26,13.79-8.44,20.56-12.83,1.91-1.24,2.64-.82,3.62.86,2.9,5,5.85,9.95,9,14.8,1.31,2,.81,2.76-1.39,3.64-7.41,2.94-14.72,6.1-22.06,9.18-1.17-.4-2.59-.46-3-1.95l.07.08c-1.6-2.81-3.52-5.44-5.34-8.12C109.7,440.86,107.73,439.23,109.35,436.86Z" transform="translate(0.39 0.04)"/><path class="cls-1" d="M38.3,392.19l-2.84-2.7c-1-1.82-.67-3.69-.22-5.56,1.58-5.61,3.24-11.21,4.69-16.84.56-2.18,1.13-3.13,3.85-2.14,5.28,1.91,10.69,3.55,16.12,5,2.68.74,3.41,1.56,2.05,4.11-3.47,6.51-6.66,13.15-10,19.73C47,396.64,42.69,394.07,38.3,392.19Z" transform="translate(0.39 0.04)"/></svg>